<svg width="1312" height="716" viewBox="0 0 1312 716" fill="none" xmlns="http://www.w3.org/2000/svg">
<path d="M1312 119.417H1192.5C1163.8 119.417 1136.49 131.749 1117.5 153.274L1079.06 196.864L1051.88 222.426C1020.68 251.776 980.269 269.413 937.529 272.339C855.524 277.952 787.005 336.891 769.199 417.136L767.085 426.663C764.057 440.31 759.595 453.599 753.774 466.308L732.523 512.705C730.105 517.985 727.231 523.044 723.935 527.826L713.541 542.9C690.557 576.236 663.608 606.658 633.287 633.495L626.437 639.558C591.963 670.07 550.531 691.659 505.772 702.432L490.46 706.118C470.036 711.033 448.915 714.087 427.938 715.21C335.331 720.166 243.012 689.505 172.379 629.41L147.307 608.079L0 453.686V0H1312V119.417Z" fill="url(#paint0_linear_196_232)"/>
<defs>
<linearGradient id="paint0_linear_196_232" x1="656" y1="0" x2="656" y2="723" gradientUnits="userSpaceOnUse">
<stop stop-color="#F4EDE8"/>
<stop offset="1" stop-color="#C0C7C7"/>
</linearGradient>
</defs>
</svg>
